<?xml version="1.0" encoding="UTF-8"?>
<svg viewBox="0 0 13 13" style="background-color:#000" xmlns="http://www.w3.org/2000/svg">
	<rect width="13" height="13"/>

	<!-- there must be some way to compress all of these -->

	<rect width="1" height="1" x="1" y="4" fill="#f00"/>
	<rect width="1" height="1" x="1" y="6" fill="#f00"/>
	<rect width="1" height="1" x="1" y="8" fill="#f00"/>

	<rect width="1" height="1" x="3" y="5" fill="#ff0"/>
	<rect width="1" height="1" x="3" y="7" fill="#ff0"/>

	<rect width="1" height="1" x="5" y="4" fill="#0f0"/>
	<rect width="1" height="1" x="5" y="6" fill="#0f0"/>
	<rect width="1" height="1" x="5" y="8" fill="#0f0"/>

	<rect width="1" height="1" x="7" y="5" fill="#0ff"/>
	<rect width="1" height="1" x="7" y="7" fill="#0ff"/>

	<rect width="1" height="1" x="9" y="4" fill="#00f"/>
	<rect width="1" height="1" x="9" y="6" fill="#00f"/>
	<rect width="1" height="1" x="9" y="8" fill="#00f"/>

	<rect width="1" height="1" x="11" y="5" fill="#f0f"/>
	<rect width="1" height="1" x="11" y="7" fill="#f0f"/>
</svg>